<svg width="24" height="25" viewBox="0 0 24 25" fill="none" xmlns="http://www.w3.org/2000/svg">
<path fill-rule="evenodd" clip-rule="evenodd" d="M10.2549 1.90086L11.5144 2.6565C13.2963 3.72553 14.4118 5.24631 14.9953 6.80113C15.2173 6.30002 15.481 5.81587 15.726 5.32585L16.707 6.30691C18.9091 8.50898 20.9999 11.8093 20.9999 15.014C20.9999 19.3123 18.3501 22.0368 14.1105 22.5079L12.7206 22.6623L13.0239 21.2971C13.2612 20.2291 13.3031 19.5307 13.2548 19.042C13.194 18.4265 12.9015 17.9441 12.5383 17.4639C12.1898 17.0031 11.8453 16.5425 11.5695 16.0331C10.4338 16.9306 9.99385 17.7409 9.85349 18.4075C9.67355 19.2623 9.92843 20.1349 10.3944 21.0668L11.2164 22.7109L9.3895 22.5079C6.81362 22.2217 4.27565 20.5011 3.27601 17.9894C2.23067 15.3628 2.96986 12.1836 6.34517 9.25832C8.5855 7.31672 9.77193 4.79987 10.2549 1.90086ZM11.587 5.20171C10.825 7.34093 9.36239 9.29001 7.65502 10.7697C4.74378 13.2927 4.48299 15.6135 5.13425 17.2498C5.61965 18.4695 6.66682 19.4728 7.90774 20.0418C7.77608 19.4035 7.7448 18.7155 7.89639 17.9955C8.22184 16.4497 9.33388 15.0011 11.47 13.666L12.547 12.9929L12.9487 14.1978C13.3007 15.2539 14.0312 16.0005 14.6016 16.9274C15.2296 17.9479 15.3497 19.1173 15.2229 20.2864C17.841 19.6301 18.9999 17.6434 18.9999 15.014C18.9999 12.7923 17.6598 10.6122 16.3292 8.90815C15.7823 10.136 14.6265 10.5688 13.4999 11.132V9.51401C13.4999 8.14506 12.9432 6.47635 11.587 5.20171Z" fill="white"/>
</svg>
