<svg width="72" height="72" viewBox="0 0 72 72" fill="none" xmlns="http://www.w3.org/2000/svg">
<g clip-path="url(#clip0_32_2022)">
<path fill-rule="evenodd" clip-rule="evenodd" d="M21.8788 12.8787C22.4414 12.3161 23.2044 12 24.0001 12H63C64.2135 12 65.3073 12.7309 65.7717 13.852C66.2361 14.973 65.9793 16.2633 65.1213 17.1213L56.1213 26.1213C55.5588 26.6839 54.7956 27 54 27H15.0001C13.7867 27 12.6928 26.2691 12.2285 25.148C11.7641 24.027 12.0208 22.7367 12.8788 21.8787L21.8788 12.8787ZM25.2427 18L22.2427 21H52.7574L55.7574 18H25.2427ZM18.8788 48.8787C19.4414 48.3162 20.2044 48 21.0001 48H60C61.2135 48 62.3073 48.7308 62.7717 49.8519C63.2361 50.973 62.9793 52.2633 62.1213 53.1213L53.1213 62.1213C52.5588 62.6838 51.7956 63 51 63H12.0001C10.7867 63 9.69279 62.2692 9.22845 61.1481C8.76411 60.027 9.02076 58.7367 9.87876 57.8787L18.8788 48.8787ZM22.2427 54L19.2427 57H49.7574L52.7574 54H22.2427ZM15.0001 30C13.8937 30 12.8771 30.609 12.3551 31.5843C11.833 32.5599 11.8902 33.7434 12.5039 34.6641L18.5039 43.6641C19.0603 44.4987 19.997 45 21.0001 45H60C61.1064 45 62.1231 44.391 62.6451 43.4157C63.1671 42.4401 63.1098 41.2566 62.4963 40.3359L56.4963 31.3359C55.9398 30.5013 55.0032 30 54 30H15.0001ZM22.6056 39L20.6057 36H52.3944L54.3945 39H22.6056Z" fill="white"/>
</g>
<defs>
<clipPath id="clip0_32_2022">
<rect width="72" height="72" fill="white"/>
</clipPath>
</defs>
</svg>
