<svg width="24" height="22" viewBox="0 0 24 22" fill="none" xmlns="http://www.w3.org/2000/svg">
<path d="M0 3.73611C0 2.08143 1.34531 0.736115 3 0.736115H21C22.6547 0.736115 24 2.08143 24 3.73611V18.7361C24 20.3908 22.6547 21.7361 21 21.7361H3C1.34531 21.7361 0 20.3908 0 18.7361V3.73611ZM15.1781 8.7283C14.9672 8.41893 14.6203 8.23611 14.25 8.23611C13.8797 8.23611 13.5281 8.41893 13.3219 8.7283L9.24375 14.7096L8.00156 13.158C7.78594 12.8908 7.4625 12.7361 7.125 12.7361C6.7875 12.7361 6.45938 12.8908 6.24844 13.158L3.24844 16.908C2.97656 17.2455 2.925 17.7096 3.1125 18.0986C3.3 18.4877 3.69375 18.7361 4.125 18.7361H8.625H10.125H19.875C20.2922 18.7361 20.6766 18.5064 20.8688 18.1361C21.0609 17.7658 21.0375 17.3205 20.8031 16.9783L15.1781 8.7283ZM5.25 8.23611C6.49219 8.23611 7.5 7.2283 7.5 5.98611C7.5 4.74393 6.49219 3.73611 5.25 3.73611C4.00781 3.73611 3 4.74393 3 5.98611C3 7.2283 4.00781 8.23611 5.25 8.23611Z" fill="#E0E0E0"/>
</svg>
