<svg width="24" height="25" viewBox="0 0 24 25" fill="none" xmlns="http://www.w3.org/2000/svg">
<g clip-path="url(#clip0_27_1872)">
<path d="M8.20724 12.7155C8.59776 13.1061 8.59776 13.7392 8.20724 14.1298L6.37881 15.9582H16.0001C16.5524 15.9582 17.0001 16.4059 17.0001 16.9582C17.0001 17.5105 16.5524 17.9582 16.0001 17.9582H6.37881L8.20724 19.7866C8.59776 20.1771 8.59776 20.8103 8.20724 21.2008C7.81672 21.5914 7.18355 21.5914 6.79303 21.2008L3.25749 17.6653C2.86697 17.2748 2.86697 16.6416 3.25749 16.2511L6.79303 12.7155C7.18355 12.325 7.81672 12.325 8.20724 12.7155ZM15.7929 4.71558C16.1535 4.35509 16.7206 4.32736 17.1129 4.63239L17.2071 4.71558L20.7427 8.25111C21.1032 8.6116 21.1309 9.17883 20.8259 9.57113L20.7427 9.66533L17.2071 13.2008C16.8166 13.5914 16.1835 13.5914 15.7929 13.2008C15.4324 12.8404 15.4047 12.2731 15.7097 11.8808L15.7929 11.7866L17.6214 9.95822H8C7.44772 9.95822 7 9.5105 7 8.95822C7 8.44538 7.38604 8.02272 7.88338 7.96495L8 7.95822H17.6214L15.7929 6.12979C15.4024 5.73927 15.4024 5.1061 15.7929 4.71558Z" fill="white"/>
</g>
<defs>
<clipPath id="clip0_27_1872">
<rect width="24" height="24" fill="white" transform="translate(0 0.958334)"/>
</clipPath>
</defs>
</svg>
